<?xml version="1.0" encoding="utf-8"?>
<!-- Generator: Adobe Illustrator 27.2.0, SVG Export Plug-In . SVG Version: 6.00 Build 0)  -->
<svg version="1.1" id="Layer_1" xmlns="http://www.w3.org/2000/svg" xmlns:xlink="http://www.w3.org/1999/xlink" x="0px" y="0px"
	 viewBox="0 0 20 20" style="enable-background:new 0 0 20 20;" xml:space="preserve">
<style type="text/css">
	.st0{fill-rule:evenodd;clip-rule:evenodd;fill:none;stroke:#000000;stroke-width:0.25;stroke-miterlimit:10;}
	.st1{fill-rule:evenodd;clip-rule:evenodd;fill:#3F3C3C;stroke:#000000;stroke-width:0.25;stroke-miterlimit:10;}
	.st2{fill-rule:evenodd;clip-rule:evenodd;stroke:#000000;stroke-width:2;stroke-miterlimit:10;}
	.st3{fill:#FFFFFF;}
	.st4{font-family:'PingFangTC-Ultralight-B5pc-H';}
	.st5{font-size:1.7443px;}
</style>
<rect x="0.7" y="1" class="st0" width="18.7" height="8.5"/>
<line class="st1" x1="2.7" y1="5.3" x2="17.1" y2="5.3"/>
<line class="st1" x1="2.7" y1="6.2" x2="17.1" y2="6.2"/>
<line class="st1" x1="2.7" y1="7" x2="17.1" y2="7"/>
<line class="st1" x1="2.7" y1="7.9" x2="17.1" y2="7.9"/>
<line class="st2" x1="0.7" y1="1.9" x2="19.4" y2="1.9"/>
<text transform="matrix(1.1466 0 0 1 1.2625 2.3799)" class="st3 st4 st5">Step</text>
<rect x="0.7" y="10.5" class="st0" width="18.7" height="8.5"/>
<line class="st1" x1="2.7" y1="14.8" x2="17.1" y2="14.8"/>
<line class="st1" x1="2.7" y1="15.8" x2="17.1" y2="15.8"/>
<line class="st1" x1="2.7" y1="16.6" x2="17.1" y2="16.6"/>
<line class="st1" x1="2.7" y1="17.4" x2="17.1" y2="17.4"/>
<line class="st2" x1="0.7" y1="11.5" x2="19.4" y2="11.5"/>
<text transform="matrix(1.1466 0 0 1 1.2392 11.938)" class="st3 st4 st5">Step</text>
</svg>
